<svg xmlns="http://www.w3.org/2000/svg" viewBox="0 0 114.58 54.91"><defs><style>.cls-1{fill:red;}.cls-2{fill:#fff;}.cls-3{fill:#0070ff;}</style></defs><g id="Calque_2" data-name="Calque 2"><g id="Calque_1-2" data-name="Calque 1"><g id="Groupe_44698" data-name="Groupe 44698"><path id="Tracé_31842" data-name="Tracé 31842" class="cls-1" d="M18.71,47.45l-3-3.54,2.45.13,3.8,4.1-3.8,4.1-2.38.12,0,0,3-3.47,0,0-4.3,3.63-3.61.18,0-.06L13.65,49l0,0L9.13,52.7l-3.49.18,3-3.79L8.59,49C6.87,50.34,5.16,51.66,3.43,53L0,53.16l0-.06L4.48,49l0,0-3.77.12-.45-.37v-.06l.29,0L3,48.59l6.1-.13L16,48.29l4.68-.11h.25v-.06h-.25L18.22,48l-6.1-.14-7-.17L.56,47.62a1,1,0,0,1-.35-.06l.46-.43,3.78.15,0,0L0,43.18v-.06l3.4.17,5.17,4,.05-.05-3-3.79,3.48.18,4.49,3.75,0,0-2.91-3.56,0-.07,3.61.18,4.3,3.63Z"/><path id="Tracé_31843" data-name="Tracé 31843" class="cls-1" d="M95.87,48.84l3,3.53-2.45-.12-3.8-4.1L96.41,44l2.38-.12,0,0-2.95,3.47,0,0,4.3-3.63,3.61-.18,0,.06-2.92,3.57,0,0,4.48-3.75,3.49-.18-3,3.79,0,0c1.72-1.3,3.44-2.62,5.17-3.94l3.4-.18,0,0-4.48,4.07,0,0,3.78-.12.45.37,0,.06-.28,0-2.48.06-6.1.13L98.62,48l-4.68.11H93.7v.06h.24l2.43.06,6.1.14,7,.17,4.57.11a.89.89,0,0,1,.36.07l-.46.42L110.13,49l0,0,4.48,4.06,0,.06-3.4-.17-5.16-4,0,.05,3,3.79-3.49-.18L101,49l0,0,2.92,3.56,0,.07-3.62-.18-4.3-3.63Z"/><g id="Groupe_44696" data-name="Groupe 44696"><g id="Groupe_44695" data-name="Groupe 44695"><path id="Tracé_31844" data-name="Tracé 31844" class="cls-2" d="M42.4,54.88v-.07h-.08Z"/><path id="Tracé_31845" data-name="Tracé 31845" class="cls-2" d="M48.05,42.38H45.82l-3.4,12.43H45l.66-2.37h2.63L49,54.88h2.37Zm-1.64,7.43.39-1.71h.4l.39,1.71Z"/></g><path id="Tracé_31846" data-name="Tracé 31846" class="cls-2" d="M88.68,47V44.47l-1.86-2.12H82.2l-1.85,2.12v8.32l2,2.12H87l1.71-2v-5h-3.9v2.58h.8v1.59H83.19V45.33h2.38V47Z"/><rect id="Rectangle_61649" data-name="Rectangle 61649" class="cls-2" x="66.48" y="42.44" width="2.58" height="12.37"/><rect id="Rectangle_61650" data-name="Rectangle 61650" class="cls-2" x="52.73" y="42.44" width="2.58" height="12.37"/><path id="Tracé_31847" data-name="Tracé 31847" class="cls-2" d="M42,54.82l-3-5.12L40.39,48v-4l-1.15-1.51H33.82v0h-.26V54.82h2.57V49.76l2.93,5.07Zm-5.9-7.6V44.65h1.68v2.57Z"/><path id="Tracé_31848" data-name="Tracé 31848" class="cls-2" d="M31.83,42.44H24.37V44.9h2.5v9.92h2.46V44.9h2.5Z"/><path id="Tracé_31849" data-name="Tracé 31849" class="cls-2" d="M61.83,42.38V48l-1.92-5.48v-.15H57.13v12.5h2.78v-5l1.92,5v.05h2.78V42.38Z"/><path id="Tracé_31850" data-name="Tracé 31850" class="cls-2" d="M75.72,42.38V48L73.8,42.53v-.15H71v12.5H73.8v-5l1.92,5v.05h2.77V42.38Z"/></g><g id="Groupe_44697" data-name="Groupe 44697"><path id="Tracé_31851" data-name="Tracé 31851" class="cls-3" d="M25.55,0A41.2,41.2,0,0,1,29.7.36C30.78.25,31.56.19,32,.19c.86,0,1.3.35,1.3,1l.08.78a38.36,38.36,0,0,0-.26,4.67l.09.61c-.07.29-.16.43-.26.43h-.34a5,5,0,0,1-.87-.17c-.35.13-.52.33-.52.6q.09,1.85.09,2.16h-.26v-.6c-.09-.69-.41-1-.95-1A.16.16,0,0,0,30,8.5h-.22c-.12,0-.17.07-.17.17v.09q.76.21.78.69a24.07,24.07,0,0,1-1,4.67v.18a1.06,1.06,0,0,0,.17.26.85.85,0,0,1-.17.25.6.6,0,0,0,.08.35,6.75,6.75,0,0,0-.43.95l.86,1.65a2.92,2.92,0,0,1-.86.78h-.09l-.43-.35h-.26c0,.12,0,.17-.09.17a2.07,2.07,0,0,1,.18.69c-.09,0-.18.09-.26.26v.18c0,.08.11.2.34.34h.18c.11,0,.2-.23.26-.69.3,0,.7-.26,1.21-.78h.08c.09,0,.23.35.44,1,.23,0,.34.07.34.17l.18-.08c.17.06.26.23.26.52V21a1,1,0,0,1-.09.43l.09.43c0,1-.06,2.07-.18,3.29,0,.59.18.91.52.95.72-.11,1.16-.17,1.3-.17l.18.26v1c0,.68.08,2.06.26,4.15a.62.62,0,0,0-.09.26.08.08,0,0,0,.06.09h0c-.09,1.15-.32,1.73-.7,1.73-1.15-.06-2-.09-2.6-.09H27a1,1,0,0,1-.52-.78h-.18v.52c0,.09-.08.18-.26.26H24.33a.77.77,0,0,1-.34-.08,4.34,4.34,0,0,1-1.47.26c-.81,0-1.21-.38-1.21-1.13l-.09-.52.35-3.63c-.06-1.06-.09-1.72-.09-2s.17-.35.26-.35a8.2,8.2,0,0,0,1.21.17c.27,0,.45-.31.52-.95v-.6c0-.19-.06-1.43-.17-3.72V18.71c0-.58.07-.87.17-.87l-.17-.43a.08.08,0,0,1,.06-.09h0c-.06-.63-.14-.95-.26-.95a3.27,3.27,0,0,0-.95.43.16.16,0,0,0-.13-.17h0a.62.62,0,0,0-.09.26c0,.19.29.33.87.43l.08.18c0,.08-.08.17-.26.26l.09.43v.17q-5.42,10-5.88,10.73c-.15,0-.27-.26-.35-.78l.09-.43c-.41-.07-.61-.16-.61-.26s.07-.17.17-.17l.44.08c.05-.17.11-.26.17-.26-.1-.63-.22-.95-.35-.95q-.56,0-.6.69h-.09c-.11,0-.29-.34-.52-1a25.21,25.21,0,0,1-2.25-4.15,32.59,32.59,0,0,1-2.25-4.15,7.63,7.63,0,0,0,.09-1v-.35a.16.16,0,0,0-.13-.17H9.88l-.43.08v.44l.17.26-.08.86a3.86,3.86,0,0,1,.78.69c-.41.08-.61.16-.61.26v.35l.61.43c0,.19-.22.42-.61.69l-.09.52a.72.72,0,0,0,.44.18v.17a1.17,1.17,0,0,0-.44.95c0,.12.05.23.09.35a.67.67,0,0,0-.09.34l.26.43a.87.87,0,0,0-.26.44c.06,1,.09,1.61.09,1.81l.17.09H10a.62.62,0,0,1,.09-.26L10,25.11a1,1,0,0,0,.17-.61h.18v.09a2.55,2.55,0,0,0,.26,1.3L11,25.8a1,1,0,0,1,1.12.87c0,.07,0,.36-.08.86.17,2.11.26,3.43.26,4,0,1.33-.23,2-.7,2h-.17c-1.38-.11-2.28-.17-2.68-.17H5.21c-.11,0-.23-.2-.34-.61a.72.72,0,0,1,.26-.08v-.35A.16.16,0,0,0,5,32.12H4.61v.09a1,1,0,0,1,.17.52c-.26,0-.52.25-.78.77a.89.89,0,0,1-.43-.08c-.75.06-1.36.08-1.82.08H1.67c-.87,0-1.3-.31-1.3-1V32c0-.3.06-1,.17-2.07-.11-1.13-.17-2-.17-2.51V27.1a1.33,1.33,0,0,1,.43-1,5,5,0,0,1,.87.18,1.17,1.17,0,0,0,.6-.52c.06-1.07.09-1.73.09-2h.09a3.21,3.21,0,0,0,1.3.69c0,.11.17.23.43.35.09,0,.26-.18.52-.52h.17l.35.26h.17l.52-1c0-.23-.17-.34-.52-.34v-.09l.09-.43a.17.17,0,0,1-.18-.13s0,0,0,0v-.09a2,2,0,0,0,.6-1q0-.09-.09-.69l.09-.61-.09-.52A1.16,1.16,0,0,0,6,19.06a10.64,10.64,0,0,1-.44-1.56L5.65,17c-.26-.12-.4-.23-.43-.35v-.17c0-.12.07-.17.17-.17a2.94,2.94,0,0,0,.78.17l.08-.17V16a.22.22,0,0,1-.25-.2.13.13,0,0,1,0-.06A13.37,13.37,0,0,0,6.6,12l-.17-.09H6.17l-.52,2.69a4,4,0,0,1,.09.69,2.07,2.07,0,0,1-.44.34H5.13c-.06,0-.17-.26-.35-.78H4.44c-.07,0-.16.18-.26.52,0,.09.14.26.43.52-.07,0-.22.15-.43.44v.52c0,.05.26.17.78.34v.09c0,.09-.32.2-1,.34l-.08.18c0,.29.07.43.17.43l1.13-.09v.09q-.78.57-.78.69v.26q.6.51.6.78l-.26.17H4.7L4.52,20l.09-.18v-.08a.16.16,0,0,0-.13-.17H4.09c-.08,0-.17.08-.26.26v.08l.09.52a.84.84,0,0,0-.09.43c.69.29,1,.67,1,1.13a.8.8,0,0,1-.43.26v.08a5.46,5.46,0,0,1,.26,1,4,4,0,0,1-1.39.44c0-.08-.14-.22-.43-.44H2.45v-.6l.08-.18.18.09h.43v-.35q0-.22-.69-.69A4.08,4.08,0,0,1,2.36,21a.09.09,0,0,1,.07-.09h0l-.09-.43c0-.45,0-1.25-.09-2.42a.73.73,0,0,1,.09-.35,7.45,7.45,0,0,1-.09-1V15a5.18,5.18,0,0,1,.09-.78,1.24,1.24,0,0,1-.09-.6,2.89,2.89,0,0,1,.09-.6,3.21,3.21,0,0,1-.09-.61,3.16,3.16,0,0,0,.26-1.13.89.89,0,0,1-.08-.43.15.15,0,0,0,.17-.13v-.13l-.09-.86h.09l-.09-.18V9.46l.09-.52a1,1,0,0,1-.17-.44,2.16,2.16,0,0,0,.34-.86l-.34-.35c.13,0,.21-.34.26-1-.29,0-.44-.17-.44-.51,0-.18,0-.26-.17-.26H2a.57.57,0,0,0-.35.6c0,.13.14.33.43.61v.08c-.4.22-.6.36-.6.44v.52H.8c-.11,0-.23-.18-.34-.44l.08-.17a.57.57,0,0,0-.08-.34c.06-.64.08-1.19.08-1.65V4.35C.43,2.29.37,1.14.37.89.37.37.75.11,1.5.11h.86L4.78.37,5,.29q.51.21.51.6A.73.73,0,0,0,5.82,1Q6.21.14,6.6.11H8.24a2.3,2.3,0,0,1,2.34,1.21l.09.18c-.23,1.28-.35,2-.35,2.25,0,.5,0,1.08.09,1.73-.05.86-.16,1.35-.35,1.47a4.89,4.89,0,0,1,.09.52C10.1,7.81,10,8,10,8l.09.43v.26a1,1,0,0,1-.17.52,5.4,5.4,0,0,0,.08.69C9.83,11,9.75,12,9.71,13.09v.69c.35.22.52.36.52.44-.34.13-.52.24-.52.34v.26c0,.12.08.17.18.17h.43a1,1,0,0,0,.52-.86v-.35a5,5,0,0,0-.17-.86.6.6,0,0,0,.34-.61c0-.15-.14-.24-.43-.26v-.26c.29,0,.43-.17.43-.52v-.34l-.34-.35c.08,0,.2-.11.34-.34,0-.05-.17-.22-.52-.52V9.63a1.48,1.48,0,0,0,.78-1.21,7.55,7.55,0,0,1-.17-1l.52-1.82a1.6,1.6,0,0,0-.35-.86c.19,0,.3-.44.35-1.3h.17a8.83,8.83,0,0,1,.87,2,29.17,29.17,0,0,1,2.16,4.15v.09a7.24,7.24,0,0,1-.17,1.3c0,.21.4.44,1.21.69.52.56.78,1,.78,1.21h.25Q21.63,4.37,23.38.63A3,3,0,0,1,25.55,0ZM1.15,3.39a.73.73,0,0,0,.09.35.7.7,0,0,0-.09.35,1,1,0,0,0,.26.6v.43a.67.67,0,0,1,.34.09,1.17,1.17,0,0,0,.7-.69V4.35H2.27c0,.17-.06.26-.17.26a.17.17,0,0,1-.18-.13V4.35a.75.75,0,0,0,.26-.44,2.22,2.22,0,0,0-.34-.86C1.38,3.12,1.15,3.24,1.15,3.39Zm.78-2a1.1,1.1,0,0,1,.17.52c-.4.22-.61.36-.61.44V2.7c0,.09.09.18.26.26a.6.6,0,0,1,.61-.34h.43a2.26,2.26,0,0,0-.43-1.47V1.06L2.88,1V.71A.16.16,0,0,0,2.75.54H2.62q-.53,0-.69.87Zm.34,25.36V27c0,.11.08.17.18.17h.17c.09,0,.17-.09.26-.26v-.17a.16.16,0,0,0-.13-.18h-.3q-.18,0-.18.18Zm.26,1.73v.08q0,.18.18.18h.08A.17.17,0,0,0,3,28.62v-.13a.16.16,0,0,0-.13-.18H2.71Q2.53,28.34,2.53,28.49Zm.09-8v.09c0,.08.09.17.26.26h.35v-.44c0-.11-.09-.17-.26-.17S2.62,20.35,2.62,20.44Zm.43-3.29a.38.38,0,0,0,.33.43.2.2,0,0,0,.11,0,2.27,2.27,0,0,0,.17-.86,1.06,1.06,0,0,0-.26-.17.57.57,0,0,0-.35.6ZM3.49,29.7l-.09.17a2.16,2.16,0,0,0,1,.87h.17a7,7,0,0,1,1.12.08c.94-.21,1.46-.42,1.56-.6v-.09c-.4,0-.6-.06-.6-.17L6.25,30h-1a4.66,4.66,0,0,1-1.81-.34Zm.17-3.64v.7a3.87,3.87,0,0,0-.17.69v.34a12,12,0,0,0,2,.35l.17-.26c-.12-.35-.23-.52-.35-.52H4.52a.16.16,0,0,1-.17-.13v0A1,1,0,0,0,5,26.67c0-.41-.38-.61-1.13-.61Zm.09-4,.17.09A.16.16,0,0,0,4.09,22v-.13H3.92C3.8,21.93,3.75,22,3.75,22.08ZM3.83,8.33V8.5L4,9.28a14.37,14.37,0,0,0-.17,1.47v.17c0,.12.07.18.17.18.7-.15,1-.5,1-1V9.88c-.08,0-.17-.08-.26-.26V9.54c.56,0,.88-.69,1-2.08V7.38a.77.77,0,0,0-.43-.52H5.21c-.41,0-.73.34-1,1a2.56,2.56,0,0,0-.43.44Zm.09,3.2v.17h.26v-.17ZM4.18,31.6a.16.16,0,0,0,.17.17h.26c.09,0,.17-.08.26-.26v-.26a.16.16,0,0,0-.13-.17h0a.46.46,0,0,0-.52.39.29.29,0,0,0,0,.13ZM4.35,6.25l.35.26h.52l.17-.09A1,1,0,0,1,5.22,6c.4-.1.6-.22.6-.35-.07-.29-.16-.43-.26-.43H5.39c-.42,0-.77.35-1,1Zm.26,22.93v.08c0,.09.09.18.26.26h.26v-.17A.16.16,0,0,0,5,29.18H4.61ZM4.87,1.49a.77.77,0,0,0,.61.86,2.57,2.57,0,0,1,.34-.78c-.05-.23-.26-.34-.6-.34s-.35.17-.35.26Zm0,1.56v.26c0,.11.09.17.26.17s.4-.23.43-.35V2.87c0-.11-.08-.17-.26-.17s-.4.23-.43.35Zm0,22.5v.17c0,.11.07.17.17.17h.09a.62.62,0,0,1,.09-.26L5,25.55ZM5,4.61v.17h.43V4.61c-.11,0-.17,0-.17-.09A.62.62,0,0,1,5,4.61Zm.78,5.62v.09h.17v-.09Zm0,18.6v.09a.16.16,0,0,0,.17.17A.15.15,0,0,0,6.08,29v-.13Zm.43-1.3a.62.62,0,0,1,.09.26h.08a.17.17,0,0,0,.18-.13v-.22H6.34Zm.09,4.33-.09.43.43.09h.09a.16.16,0,0,0,.17-.13v-.13c0-.09-.09-.18-.26-.26Zm1.81-16.7c0,.11.07.17.18.17H8.5a.16.16,0,0,0,.18-.13v0A.17.17,0,0,0,8.55,15h-.3c-.12,0-.18.08-.18.18ZM9.46,26.93V27c0,.12.08.17.26.17s.34-.17.34-.25-.08-.18-.26-.26H9.72c-.09,0-.18.09-.26.26ZM10,30.82v.09a.16.16,0,0,0,.17.17h1.21c.3,0,.48-.09.52-.26v-.17a.58.58,0,0,0-.61-.35H11.1a1.4,1.4,0,0,0-1.13.52Zm.6-22.32.09.17v.08h-.26V8.67a.16.16,0,0,1,.17-.17Zm2.08,7.26a.64.64,0,0,1-.17.35v.26c.27,0,.44.2.52.6a.08.08,0,0,1,.08.07v0a.47.47,0,0,0,.35-.52c-.17,0-.29-.26-.35-.78Zm-.09,3.38c.16.52.31.78.44.78h.34c.06-.51.09-.83.09-1a.17.17,0,0,1-.18-.13.09.09,0,0,1,0-.05,1.07,1.07,0,0,0,.26-.52,1.06,1.06,0,0,0-.26-.17h-.09a1.48,1.48,0,0,0-.61,1Zm.18-5.71-.09.43v.61a.16.16,0,0,0,.17.17h.09a1,1,0,0,0,.52-.86.46.46,0,0,0-.52-.35Zm.08,3.8-.08.18v.08c0,.12.08.18.26.18a.54.54,0,0,1,.26-.09V17.5c0-.1-.15-.19-.44-.26Zm2.86-4.75c0,.28-.13.43-.26.43h-.09l-.43-.35h-.26v.61l.17.26v.17a1.6,1.6,0,0,0-.43.87l.17,1.47a4,4,0,0,0-.09.69c.09,0,.18.08.26.26-.08,0-.17.08-.26.26.15.52.26.78.35.78.06-.18.23-.26.52-.26h.08v.26a1.06,1.06,0,0,1-.17.26v.25c.25.41.45.61.61.61l.43-.09v.26c-.2,0-.46.18-.78.52v.09l.09.17-.17.09h-.18a3.65,3.65,0,0,1-.52-.52h-.26a.16.16,0,0,0-.17.17,5.66,5.66,0,0,0,.43,1.47h.18c0-.34.05-.52.17-.52h.26c.09,0,.17.09.26.26V21c0,.14-.35.29-1,.43l-.08.18v.08c0,.46.11.69.34.69a4,4,0,0,1,.78-.17h.17c.09,0,.18.12.26.35a5.68,5.68,0,0,0-1,.34l.09.61v.17c0,.08-.06.39-.17,1V25c0,.12.07.17.17.17l.43-.08c0,.07.15.21.43.43h.35a.16.16,0,0,0,.17-.13s0,0,0,0v-.61a1.33,1.33,0,0,0-.26-.69,4.88,4.88,0,0,1,.26-1.13c-.08,0-.2-.11-.34-.34a.89.89,0,0,0,.43-.52l-.09-.44.09-.17a1,1,0,0,1-.17-.43c0-.4.05-.6.17-.61L16.47,20a1.5,1.5,0,0,0,.17-.69L16.47,19l.08-.17-.08-.17a2.47,2.47,0,0,0,.26-.78c-.12-.46-.2-.69-.26-.69l.08-.44v-.34c0-.09-.08-.18-.26-.26a1.5,1.5,0,0,1-.69.17h-.26v-.17l.52-.44c-.06-.41-.09-.65-.09-.69a3.33,3.33,0,0,0,.44-.78c-.09,0-.18-.11-.26-.34a1.83,1.83,0,0,0,.43-.87v-.26c0-.08-.09-.17-.26-.26Zm-.95-.7V12c0,.08.11.2.34.34h.09s.13-.08.26-.26c-.09-.23-.18-.34-.26-.34Zm.51,4.93h.35v.18h-.35Zm6.58-8.13v.35A.16.16,0,0,0,22,9.1h.09a.62.62,0,0,0,.43-.61V8.32h-.17c-.35,0-.52.12-.52.27Zm0,7.53v.09a.16.16,0,0,0,.17.17.17.17,0,0,0,.18-.13v0L22.09,16a.62.62,0,0,1-.26.09Zm.09,1.56-.09.17v.26c0,.12.07.17.17.17a.78.78,0,0,0,.26-.17c-.07-.27-.19-.41-.35-.43ZM23.22,7v.09c.4.06.6.15.6.26a3.17,3.17,0,0,0-.95,1.73,3.2,3.2,0,0,1,.61.61,2.81,2.81,0,0,0-.35,1.3c-.29,0-.43.2-.43.6a1.5,1.5,0,0,1,.34,1c-.08,0-.17.11-.26.34a2.08,2.08,0,0,1,.09.6c-.29,0-.43.11-.43.26v.35a1.68,1.68,0,0,1,.34,1,.07.07,0,0,1,.09.06v0l-.09.6h.61c.12,0,.17-.09.17-.26s-.14-.34-.43-.35v-.08l.43-.35a1.93,1.93,0,0,0-.43-1.3v-.08l.52-.09-.09-.61a.57.57,0,0,0,.52-.6L23.91,12v-.69l.17-.26v-.26c-.17,0-.26-.06-.26-.17v-.26l.09-.44a.14.14,0,0,1-.17-.13s0,0,0,0a3.79,3.79,0,0,0,.6-1.12A5.66,5.66,0,0,1,24,7.36a.73.73,0,0,0,.08-.25,1.38,1.38,0,0,1-.17-.52h-.35c-.07,0-.19.15-.35.44Zm.17-1.3V6c0,.15.23.26.69.35a.9.9,0,0,0,.18-.43l-.35-.35h-.35c-.12,0-.17.08-.17.18Zm.17-1.81v.17c0,.12.07.17.18.17h.17c.23-.07.35-.33.35-.78V3.3h-.35a.57.57,0,0,0-.35.61Zm0,28.12c.09.23.18.34.26.34h.35l.08-.43v-.09c0-.08-.08-.17-.26-.26h-.17c-.13,0-.22.16-.26.44Zm.09-1.21c.09.23.17.34.26.34h.26c.07,0,.19-.17.34-.52v-.26c0-.08-.08-.17-.26-.26H24c-.07,0-.19.24-.34.7Zm.09-29.68.08.6V2.87a.73.73,0,0,0,.35.09,1.77,1.77,0,0,0,.34-1,2.49,2.49,0,0,1-.08-.61.15.15,0,0,0,.17-.13V.79a.15.15,0,0,0-.13-.17h0a.68.68,0,0,0-.7.52Zm0,25.35a.79.79,0,0,1,.08.26h.09A5.36,5.36,0,0,1,25,26.49v-.26c0-.09-.2-.23-.6-.43-.19,0-.42.24-.7.7ZM24.08,5A.06.06,0,0,0,24,5h0l-.09.17a2,2,0,0,0,.86.17A.61.61,0,0,1,25,5.21V4.86h-.34ZM24,27.87l.26.35a.58.58,0,0,1,.26-.09v-.34a.15.15,0,0,0-.13-.17,0,0,0,0,0-.05,0h-.08c-.05,0-.14.09-.27.26Zm0,.7v.6c0,.09.08.18.26.26a.58.58,0,0,0,.34-.6c-.06-.35-.14-.52-.26-.52h-.08c-.1,0-.18.09-.27.26Zm.6-5.63v.18h.09v-.18Zm.61,6.67c.05.34.14.51.26.51l-.09.61v.09c.29.4.46.6.52.6H26a.15.15,0,0,0,.17-.13v-.21a1.45,1.45,0,0,0-.43-.87L25.9,30c-.12-.75-.23-1.12-.35-1.12s-.25.26-.35.78Zm.26-2.77a2.14,2.14,0,0,1-.09.34.62.62,0,0,1,.09.26h.43c.09,0,.17-.11.26-.34a.62.62,0,0,1-.09-.26Zm.26,4.76-.09.34.26.17h.17c.09,0,.18-.08.26-.26s-.08-.17-.26-.25Zm.43-27.78c0,.12.07.17.17.17h.26c.09,0,.18-.08.26-.26a.15.15,0,0,0-.13-.17h-.3c-.09,0-.18.09-.27.27Zm.95-.52v.18h.26c.09,0,.17-.09.26-.26A.17.17,0,0,0,27.5,3h-.13c-.09,0-.18.1-.26.27Zm3.81,27.17h-.35a8.21,8.21,0,0,1-1.21-.09,2.26,2.26,0,0,1-1.13.52,3.28,3.28,0,0,0-.95.87.62.62,0,0,1,.09.26h.35c0-.39.31-.62,1-.69a6.36,6.36,0,0,1,1-.44,5.2,5.2,0,0,1,.69-.08,3.63,3.63,0,0,0,1.38.25v.09a1,1,0,0,0-.17.43l.17.09H32c.09,0,.18-.09.26-.26v-.17c0-.12-.17-.18-.52-.18V31a1,1,0,0,0,.26-.61l-.17-.08h-.26a4.23,4.23,0,0,0-.7.18ZM28.41,13l-.17.26v.35l.17.26-.26.34c0,.12.07.18.17.18h.26a.17.17,0,0,0,.18-.13V14.2l-.18-.34a1,1,0,0,0,.18-.52v-.26A2.33,2.33,0,0,0,28.4,13Zm-.26,1.82V15c0,.12.07.18.17.18h.09a.16.16,0,0,0,.17-.13,0,0,0,0,0,0,0v-.17c-.11,0-.17,0-.17-.09a.79.79,0,0,1-.27.1ZM29.28,22a4.13,4.13,0,0,0,.08.78,2.65,2.65,0,0,0-.43,1.64c.08,0,.17.09.26.26a1.65,1.65,0,0,0-.35,1,5.42,5.42,0,0,1,.35,2c.13.17.21.26.26.26s.26-.27.26-.69l-.26-.43a1.8,1.8,0,0,0,.34-.52,3,3,0,0,1-.26-1.13c.09,0,.18-.08.26-.26v-.17l-.26-.35.26-.43v-.35l.09-.86c-.12,0-.17-.09-.17-.26a2.71,2.71,0,0,1,.78-1.73c.12,0,.27-.2.43-.61v-.43h-.09q-.69,0-1.56,1.56Zm.43,7.53c0,.17.37.34,1.12.52a.62.62,0,0,1,.26-.09v-.09l-.17-.26v-.08a.9.9,0,0,0,.17-.26.14.14,0,0,0-.13-.17,0,0,0,0,0,0,0h-.17a2.38,2.38,0,0,0-1.05.44Zm1.38-16.61h.26v.52a6.19,6.19,0,0,1-.08,1,.72.72,0,0,1,.08.26l-.08.43.08.6-.08.18a.77.77,0,0,1,.08.34c0,.12,0,.18-.08.18l.08.43v.52a.89.89,0,0,1-.08.43l.08.52v.6h-.08c-.25,0-.45-.49-.61-1.47a1.77,1.77,0,0,1-.6-.78v-.26l.25-.34c0-.08,0-.36-.08-.87a5.46,5.46,0,0,1,.26-1v-.6c.32,0,.52-.19.6-.6Zm0-1.9h.26v.69h-.26L31,11.26a.73.73,0,0,0,.08-.25Z"/><path id="Tracé_31852" data-name="Tracé 31852" class="cls-2" d="M52,0q2.51,0,4.32,2.77c1.68,1.6,2.51,3,2.51,4.15.06.87.09,1.59.09,2.17-.09,0-.2.11-.35.34v.09s.15.18.44.43q0,4.21-1,5.19l-8.47,9.43a.79.79,0,0,1,.08.26h3.55c1.14,0,2.84,0,5.1-.08.35,0,.52.63.52,1.9v2.5l-.08.52a13.12,13.12,0,0,1,.17,2.43c-.13.86-.3,1.3-.52,1.3-1.46-.06-2.52-.09-3.2-.09H44.62q-1.32,0-3.63.09v-.09a2.61,2.61,0,0,0-.09-.69A2.5,2.5,0,0,0,41,32l-.17-.09h-.09c-.17,0-.26.41-.26,1.22a.58.58,0,0,1,.09.26l-.18.08H39.17c-1-.14-1.56-.32-1.56-.52.47,0,.7-.14.7-.26v-.26a.16.16,0,0,0-.13-.17h0c-.34,0-.52.14-.52.43h-.16c0-.63.13-.95.26-.95a.62.62,0,0,1-.09-.26c-.17-1.92-.26-3.22-.26-3.89V27.1c.06-1,.2-1.56.43-1.65l.44.35c.17-.58.4-.86.69-.86H39l.43.08v-.08c0-.11-.23-.34-.69-.7a21.31,21.31,0,0,0,2.33-2.51q.18,0,.18.18l-.35.34v.09l.17.26v.09c-.11.07-.2.53-.26,1.38a.78.78,0,0,1,.26.17c.35-.14.52-.31.52-.52a5.4,5.4,0,0,0-.08-.69A4.7,4.7,0,0,1,42,21.56c-.29-.07-.43-.16-.43-.26.28-.06.8-.66,1.55-1.82q7.62-8.19,7.62-9.08c.07,0,.16-.32.26-1a.62.62,0,0,1-.09-.26c.58-.18.86-.41.86-.69a.83.83,0,0,0-.43-.18l-.43.26h-.09a3.68,3.68,0,0,0-2.25-1.12h-.35a2.51,2.51,0,0,0-2.68,2,2.72,2.72,0,0,1-.09.69l.17,1.38c0,.35-.37.52-1.12.52h-3.2q-.81,0-3,.18c-.52,0-.78-.64-.78-1.9a16.06,16.06,0,0,1,.17-2.08l-.08-.35c0-1.78.28-2.68.86-2.68,0-.59.84-1.68,2.51-3.29,0-.17.06-.26.17-.26h.44A1.64,1.64,0,0,1,42.37.28h4.42C47.65.28,49.38.19,52,0ZM37.79,29.44v.17c0,.12.07.17.17.17h.17a.15.15,0,0,0,.18-.13v-.38H38A.16.16,0,0,0,37.79,29.44Zm.26-3.2-.18.26v.34q0,.18.18.18h.08a.16.16,0,0,0,.18-.13v-.57a.72.72,0,0,1-.26-.08Zm0,2.42v.26h.08a.16.16,0,0,0,.18-.13v0l-.18-.09Zm.86-18.43a.47.47,0,0,0,.39.52h.13a1,1,0,0,0,.18-.26V10c0-.08-.09-.17-.26-.26h-.18c-.17.06-.26.23-.26.52ZM40.56,28v.26a.16.16,0,0,0,.17.17l.43-.09v-.25c0-.09-.08-.18-.26-.26h-.17c-.12,0-.17.07-.17.17Zm.08.78-.08.43v.35a.16.16,0,0,0,.17.17.16.16,0,0,0,.17-.13v-.65a.16.16,0,0,0-.13-.17h-.13Zm-.08,1.64v.09a.16.16,0,0,0,.17.17.16.16,0,0,0,.17-.13v-.13a.15.15,0,0,0-.13-.17h0c-.12,0-.17.07-.17.17Zm.17-5.71a2.25,2.25,0,0,1-.09.35c.12.26.23.4.35.43h.09c.08,0,.17-.09.26-.26-.06-.35-.15-.52-.26-.52Zm.09,1.73c0,.12.07.17.17.17l.17-.08a.61.61,0,0,1-.08-.26H41c-.12,0-.17.07-.17.17Zm2.68-4.15v.17h.35v-.34h-.18a.16.16,0,0,0-.17.17ZM43.84,8.5v.17a1,1,0,0,0,.18.52,4.08,4.08,0,0,0-.09.69l.17.09a3.54,3.54,0,0,0,.26-1.47l-.26-.17H44c-.12,0-.17.07-.17.17ZM51.2,2.79q0,.13-.69.6v.44c0,.08.11.2.34.34,1.27-.11,1.9-.31,1.9-.6V3.22h-.52a3.88,3.88,0,0,1-1-.43ZM53,18a.16.16,0,0,0,.17.17h.43v-.35h-.43c-.12,0-.17.08-.17.18Z"/><path id="Tracé_31853" data-name="Tracé 31853" class="cls-2" d="M71.18.19a.77.77,0,0,1,.87.65.81.81,0,0,1,0,.22.16.16,0,0,0,.17.17h.09a.16.16,0,0,0,.17-.13v0a.73.73,0,0,0-.09-.35c0-.14.18-.31.52-.52l.61.09H76A8,8,0,0,0,77.41.19,8.05,8.05,0,0,0,78.8.28h2c.27,0,1.19.81,2.77,2.42a6,6,0,0,1,2.6,4.67l-.35,5.1.09.78-.09.18.09.34c0,1.29-.32,2.12-1,2.51,0,.51-1.29,2-3.89,4.41A34.54,34.54,0,0,1,77,20.52a2.61,2.61,0,0,1-.69.09.8.8,0,0,1-.43-.09,19.23,19.23,0,0,0-3.12.35,1,1,0,0,0-.52-.18c-.08,0-.17.12-.26.35.12.35.23.52.35.52.09-.23.17-.35.26-.35s.17.08.17.18c0,.69-.2,1-.6,1-.18,0-.26.06-.26.18v.08q0,.34.6,1c-.4.14-.6.28-.6.43s.23.29.69.52a2.72,2.72,0,0,0,.09.69.7.7,0,0,0-.09.35,1,1,0,0,0,.52.17h.6v.08l-.26.35v.09c0,.08.12.2.35.34h.09a.14.14,0,0,0,.17-.13v-.21L74,25.88l.18-.08h.17c.19,0,.3.29.34.86a22.55,22.55,0,0,1-.17,2.6,7.55,7.55,0,0,0,.17.95.07.07,0,0,1-.06.09h0a11.27,11.27,0,0,0,.17,1.3c0,1.1-.35,1.64-1,1.64l-1.3.18h-1.3a3.25,3.25,0,0,0-.69.08,3.25,3.25,0,0,0-.69-.08h-.44q-.31,0-.6-1.56c-.15-.29-.26-.43-.35-.43h-.17c-.12,0-.17.07-.17.17a9.07,9.07,0,0,1,.26,1.56c-.12,0-.18.07-.18.17l-.86-.09h-1l-2.08.18H64c-.7,0-1-.26-1-.78a7.17,7.17,0,0,1-.17-1.13c0-.34.05-1.32.17-2.94a21.51,21.51,0,0,1-.17-2.25c.1-.29.24-.43.43-.43.72.06,1.15.08,1.3.08s.09-.17.26-.26q-.09-1.42-.09-2.16V13.77a4.12,4.12,0,0,0-.09-.86,2.6,2.6,0,0,0,.09-.78v-.69c0-.9,0-2.11.09-3.64a1.1,1.1,0,0,0-.52-.17H64l-.87.09a2.69,2.69,0,0,1-.43-1.56l.09-.35a4,4,0,0,1-.09-.69c0-.23.2-.52.61-.86V4.17A8.26,8.26,0,0,0,63,2.53v-2c0-.09.09-.18.26-.26H70A12.09,12.09,0,0,0,71.18.19Zm-1,22.58a4.89,4.89,0,0,0,.09.52c-.06.18-.12.26-.18.26a.58.58,0,0,0,.09.26l-.09.87s0,.27.09.69a.62.62,0,0,0-.09.26l.26.17h.26c.09,0,.18-.08.26-.26v-.43a.77.77,0,0,0-.08-.34l.17-.7a1.35,1.35,0,0,0-.43-.78v-.17c.23,0,.34-.08.34-.26v-.52c-.11,0-.17,0-.17-.08C70.31,22.4,70.14,22.57,70.14,22.77Zm.09,3.2-.18.26.18.35a3.72,3.72,0,0,0-.18,1v1.9c0,.09.09.17.26.26h.09c.14,0,.29-.29.43-.87a1,1,0,0,0-.26-.52v-.86a.94.94,0,0,0,.26-.61v-.17l-.26-.35a.08.08,0,0,1,.07-.08h0a.4.4,0,0,0-.43-.34Zm0-16.35a9.54,9.54,0,0,0,.43,1.65v.17a4.11,4.11,0,0,0-.35,1.47v.26l.26.35v.26a1.2,1.2,0,0,0-.26.6,1.51,1.51,0,0,1,.26.61,3.32,3.32,0,0,0-.26,1l.44.52v.09a1.63,1.63,0,0,0-.44.69,5.18,5.18,0,0,1,.09.78,5.28,5.28,0,0,1-.26,1c.12,0,.17.09.17.26a.62.62,0,0,1-.08.35,3.94,3.94,0,0,1,.08.77v.26a5,5,0,0,1-.17.87.46.46,0,0,0,.52.34A1.62,1.62,0,0,0,71,21c0-.3-.08-.47-.08-.52a1.82,1.82,0,0,1,.34-.95V19.4a.87.87,0,0,0-.17-.52l.17-.52a2.47,2.47,0,0,1-.08-.6c.08-.23.17-.35.26-.35a.62.62,0,0,0-.09-.26,8.08,8.08,0,0,1,.26-1.47l-.26-.78a1.43,1.43,0,0,0,.17-.61,3.41,3.41,0,0,0-.26-1.21.08.08,0,0,1,.07-.08h0l-.09-.61v-.52a.7.7,0,0,0,.26-.43,2,2,0,0,1-.26-.78h.09a1,1,0,0,1-.17-.52,1,1,0,0,1,.26-.52V9.45a1.28,1.28,0,0,1-.26-.87h-.34a1.34,1.34,0,0,0-.61,1Zm0,20.33-.09.18v.17h.26v-.17a.15.15,0,0,0-.14-.17h0Zm0-23.1c.15.58.27.87.34.87h.26a14.51,14.51,0,0,1,.52-1.82V5.82a.82.82,0,0,0-.6-.35c-.35,0-.52.46-.52,1.39ZM70.66,2l.09.52a.57.57,0,0,0-.35.61V5.21h.17c.41,0,.61-.43.61-1.3,0-.29,0-.72.08-1.3l-.08-.17.08-.52V1.83c0-.11-.08-.17-.26-.17a.47.47,0,0,0-.34.35Zm0-1v.17c.06.18.23.26.52.26h.08a.15.15,0,0,0,.18-.13V1c-.06-.17-.23-.26-.52-.26-.08,0-.17.09-.26.26Zm.09,29.77a.67.67,0,0,1,.08.25h.35c.08,0,.17-.08.26-.25v-.35h-.35s-.17.11-.34.35Zm.6.77v.26c0,.12.07.18.17.18h.18a.16.16,0,0,0,.17-.13v-.31c0-.08-.09-.17-.26-.26s-.17.09-.25.26Zm2.42-3.2a1.25,1.25,0,0,0-.34.7h-.09a1,1,0,0,1-.52-.18.62.62,0,0,1-.26.09c0-.16-.2-.27-.6-.35a2.37,2.37,0,0,0-.52.7c.13.52.27.77.43.78H72c.07,0,.18-.24.34-.7h.26a1.05,1.05,0,0,0,.7.35c.28,0,.43-.06.43-.17l-.09-.44c.35-.07.52-.18.52-.34s-.23-.41-.34-.44Zm-1.9-3.46-.17.26v.18c0,.11.07.17.17.17h.35a.16.16,0,0,0,.17-.13,0,0,0,0,0,0,0V25.2c0-.1-.17-.22-.51-.35Zm-.17,3.29v.18c0,.11.09.17.26.17a.62.62,0,0,1,.26-.09v-.26a.16.16,0,0,0-.13-.17h-.22a.16.16,0,0,0-.17.17Zm.17-2.25.09.44c-.12,0-.17.07-.17.17v.08l.08.44h-.08c0,.24.29.42.86.52.07,0,.22-.2.43-.61v-.17c0-.12-.23-.2-.69-.26v-.09l.09-.17c-.12-.35-.23-.52-.35-.52h-.08c-.12,0-.18.07-.17.17Zm.35-4.24-.17.26c0,.12.07.18.17.18h.17v-.26a.15.15,0,0,0-.12-.18Zm.09-4.32v.26a.16.16,0,0,0,.17.17h.09c.08,0,.17-.12.26-.35l-.18-.08Zm.34-8.65a6.44,6.44,0,0,1-.17,1.3.07.07,0,0,0,.07.08h0a16.91,16.91,0,0,0-.18,1.73c0,1.16.41,1.73,1.22,1.73v.09c2.36-.15,3.66-.46,3.89-.95a4.69,4.69,0,0,0,.52-1.9V9.89c-.25-1.61-1-2.42-2.34-2.42h-1c-1.38,0-2.08.2-2.08.6Zm-.26,8v.08c0,.12.07.17.18.17h.34l.17-.08a.46.46,0,0,0-.51-.35c-.12,0-.18.07-.18.17Zm.35,11.68v.26a.16.16,0,0,0,.17.17c.23-.09.35-.17.35-.26a.16.16,0,0,0-.13-.17,0,0,0,0,0,0,0Zm.61-10a.79.79,0,0,1,.08.26h.17a.16.16,0,0,0,.18-.13v-.3a.17.17,0,0,0-.13-.18H73.6c-.14,0-.23.12-.25.35Zm0,11.85v.26c0,.12.07.18.17.18a.57.57,0,0,0,.6-.35v-.17c0-.15-.11-.23-.34-.26s-.41.23-.43.34Zm.08-10.64c0,.12.07.17.17.17h.09v-.34H73.6a.16.16,0,0,0-.17.17Zm.09,7.7v.17c0,.12.08.18.26.18s.34-.18.34-.26v-.09c0-.08-.08-.17-.26-.26-.23.09-.34.17-.34.26Z"/><path id="Tracé_31854" data-name="Tracé 31854" class="cls-1" d="M89.91.28l2.94.08a.79.79,0,0,1,.26-.08c0,.3.44.47,1.3.52l.52-.43h.61c.4,0,.81,0,1.21-.09A.62.62,0,0,0,97,.37V.45c-.58.3-.87.51-.87.61v.17c0,.12.08.17.18.17A5.78,5.78,0,0,0,97,1.23a.87.87,0,0,0,.52.17l.34-.34a.14.14,0,0,0-.12-.17,0,0,0,0,0,0,0c.12-.27.23-.4.35-.44h.08c.12,0,.18.07.18.17l-.09.61.17.09h.18V.62c0-.08.14-.19.43-.34.58.06.86.14.86.26V.71l-.51.61v.26h.6c.13,0,.22.14.26.43h.26c.09,0,.17-.09.26-.26s-.17-.46-.52-.69l.43-.69H102c.17,0,.26,0,.26-.09l.43.09H105c.12,0,.23.17.35.43a1,1,0,0,0-.18.52v.52a6.11,6.11,0,0,0,.09.86A5.64,5.64,0,0,1,105,3.92a1.29,1.29,0,0,1,.18.52c-.13,0-.22.14-.26.43a1.57,1.57,0,0,0,.43.86v.09l-.26.35c.06.77.09,1.32.09,1.64.46.19.69.33.69.43v.09c-.16.52-.33.78-.52.78v.26a.16.16,0,0,0,.17.17l-.17,1.12a3.64,3.64,0,0,1,.6.7v.08a2.33,2.33,0,0,0-.34,1.56l.26.43c-.35.29-.52.55-.52.78l.26.35-.26.35v.17l.34.34-.51.44v.43c.23,0,.34.11.34.26a.87.87,0,0,0-.43.69c.08,0,.29.2.6.61-.4,0-.6.49-.6,1.3a.61.61,0,0,1,.08.26H105a1.45,1.45,0,0,0-.43-.87,5.78,5.78,0,0,1,.17-.69l-.52-.86v-.26a1.34,1.34,0,0,0,.35-.61c0-.75-.15-1.12-.43-1.12v-.18c.28,0,.43-.08.43-.26V13.44a1.58,1.58,0,0,1-.52-.95,2.18,2.18,0,0,1,.52-1.13l.08-.43c0-.12,0-.17-.08-.17l.08-.61V9.8a2.59,2.59,0,0,0-1-2.07V7.64l.09-.43a1,1,0,0,0-.52-.18c-.12.35-.23.52-.35.52h-1a7.45,7.45,0,0,0-.95.09l-.17-.09a1,1,0,0,1-.52.18V7.55l.08-.6-.6-.35h-.18v.18q.08.34.18.69c-.2.46-.35.69-.44.69l.09.61a4.08,4.08,0,0,1-.09.69c0,2,.21,3,.61,3H100v.08a1.29,1.29,0,0,0-.44.95v.18l.09.43h.61v.17c-.38,0-.58.09-.61.26a2.28,2.28,0,0,0,.43,1v.09l-.26.34v.26q0,.18.18.18H100a.85.85,0,0,0,.78-.61,1.58,1.58,0,0,0-.6-1.47V14.3h.26c0-.11-.09-.17-.26-.17a.63.63,0,0,1,.69-.69v-.35l-.09-.17.18-.09h.34a7,7,0,0,0,2-.34v.08l-.17.26V13l.17.26v.17c0,.06-.17.2-.52.43a1.94,1.94,0,0,0,.78,1.39,1,1,0,0,0-.26.6,1,1,0,0,1,.18.52v.78a1.4,1.4,0,0,0-.52.95c0,.81.17,1.21.34,1.21a4.13,4.13,0,0,1,.78-.08c.12,0,.17.07.17.17a1.8,1.8,0,0,1-.34.52l-.43-.09-.52.09a9.19,9.19,0,0,0-1.56-.17l-.61.08v-.08a4.89,4.89,0,0,1,.09-.52,1.54,1.54,0,0,0-.35-.52v-.35s.15-.19.44-.43v-.18a2.86,2.86,0,0,1-.7-1l-.34-.08-.18.26v.43c.13,1.5.36,2.25.7,2.25v.17c-.75.16-1.13.36-1.13.61,0,0,0,.4.09,1.12q0,.78-.09,3.72c0,.58.35.87,1,.87.06.23.17.34.35.34s.34-.17.34-.26a.14.14,0,0,1-.17-.13v0a.16.16,0,0,1,.17-.17c.1,0,.17.08.17.26a1.26,1.26,0,0,1-.51,1.21l-.09.86.17.7c-.06.9-.08,1.57-.08,2a1.3,1.3,0,0,0,.43.77c-.12,0-.17.08-.17.18v.43l.17.26a.91.91,0,0,1-.61.95h-.43a.15.15,0,0,1-.17-.13,0,0,0,0,1,0,0,6,6,0,0,1,.08-1c-.08-.23-.17-.35-.26-.35H99.6l-.17.09.08.43a.14.14,0,0,1-.13.17s0,0,0,0a1,1,0,0,1-.43-.69v-.26a1.47,1.47,0,0,0-.61-.17l-.17.26V32a1.11,1.11,0,0,0,.34.69v.18a1,1,0,0,1-.25.6c-.87-.11-2-.2-3.29-.26a3.78,3.78,0,0,1-1,.09c-.23,0-.35-.06-.35-.17a1,1,0,0,0,.17-.44l-.17-.08h-.26c-.12,0-.17.07-.17.17v.09l.17.26v.08l-.43.09a.92.92,0,0,1-.52-.26,1,1,0,0,0-.61.26H90.08c-.4,0-.6-.38-.6-1.13v-.08c0-.15,0-1.45.17-3.9a.58.58,0,0,1-.09-.26c.35-.21.52-.36.52-.43s-.17-.27-.52-.6a1.09,1.09,0,0,1,.87-1.22l.52.09c.46-.19.69-.76.69-1.73l-.26-2.42a3.18,3.18,0,0,1,.69-.18v-.17l-.6-.34q0-.18-.09-.18l.09-.6V17.5c0-.13.3-.27.86-.43l.09-.17a.62.62,0,0,1-.09-.26h-.09c-.34,0-.51.14-.51.43h-.18L91.38,17l.09-1v-5a15.74,15.74,0,0,1,.17-2.17c-.09-.69-.43-1-1-1l-.52.08q-.6,0-.6-.69c0-.37,0-1.47.17-3.29a30,30,0,0,1-.17-3.2C89.59.4,89.74.28,89.91.28Zm1.9,28c.12,0,.17,0,.17.09a.62.62,0,0,1,.26-.09v-.08a.15.15,0,0,0-.13-.18h0c-.08,0-.17.09-.26.26ZM92.33,32a.79.79,0,0,0-.26-.08l-.08.17v.17a.55.55,0,0,0,.51.35q.78-.26.78-.87H93.2Zm-.17-2.25V30c.06.18.23.26.52.26H93v-.17c-.11,0-.26-.12-.43-.35Zm.6-1.3a1.51,1.51,0,0,0-.52.87l.18.08h.43c.4,0,.61-.05.61-.17a.71.71,0,0,0-.64-.77h-.06Zm-.08-1.21v.26h.26v-.26ZM94.41,9.79a2,2,0,0,1-1,.7v.08l.08.43c-.29.12-.43.2-.43.26l.26.78a.62.62,0,0,0-.09.26,2.13,2.13,0,0,0,.87.35.16.16,0,0,0,.17-.13v0c-.07,0-.19-.23-.34-.7-.24,0-.35,0-.35-.17v-.26a.16.16,0,0,1,.17-.17h.09l.26.17a.15.15,0,0,0,.17-.13v-.13a1.1,1.1,0,0,0-.17-.52c.34-.16.52-.27.52-.34V9.88a.79.79,0,0,1-.26-.08ZM93.2,12.91c0,.09.08.17.26.26h.08c.09,0,.18-.09.26-.26v-.09a.15.15,0,0,0-.13-.17h-.21c-.09,0-.17.09-.26.26Zm.08.86v.61a.62.62,0,0,1-.08.35,1.53,1.53,0,0,1,.26.69c-.12,0-.18.07-.18.17v.35a2.28,2.28,0,0,1,.26,1.12.08.08,0,0,1,.09.07v0l-.17.43.08.17a.72.72,0,0,1-.08.26,1.38,1.38,0,0,0,.34.78c-.08,0-.2.12-.34.35a1.79,1.79,0,0,0,.17.6.73.73,0,0,0-.09.35l.26.43v.18a.23.23,0,0,0-.26.19V21c0,1.05.12,1.68.35,1.9v.86l.52,1.13c0,.23.06.34.17.34h.26a.16.16,0,0,0,.18-.13.06.06,0,0,0,0,0V24.5a3.89,3.89,0,0,1-.77-2.08c.08,0,.17-.11.26-.34s-.18-.26-.52-.44v-.08c0-.15.11-.23.34-.26.42.06.65.08.69.08.24,0,.35-.26.35-.69l-.26-.17a.62.62,0,0,1-.26.09l-.6-1.3a.58.58,0,0,1,.25-.09l.44.09.17-.26V18.7a1.19,1.19,0,0,1-1-.61l.18-.26.43.09a.57.57,0,0,0,.61-.35V17.4c0-.11-.18-.2-.52-.26-.22.35-.37.52-.44.52s-.17-.09-.17-.26.22-.39.61-.78v-.26h-.52a.15.15,0,0,1-.18-.13V16c0-.13.15-.22.44-.26v-.35c-.29,0-.44-.05-.44-.17v-1c0-.08.15-.2.44-.34-.12-.4-.26-.61-.44-.61-.44.16-.7.34-.77.53Zm.44-6.14v.09a.58.58,0,0,0,.6.34A.79.79,0,0,1,94.58,8V7.72a.57.57,0,0,0-.6-.35c-.09,0-.17.09-.26.26Zm.69,18.08v.35a1.47,1.47,0,0,1,0,1.38q.16.52.69,3.9c.16,0,.3.37.43,1.12h.26a2.31,2.31,0,0,0,.78-1.3,3,3,0,0,1-.43-.52v-.17c.29-.3.43-.53.43-.69-.57,0-.86-.26-.86-.78-.06,0-.09-.09-.09-.26s.23-.2.69-.26v-.26c-.57-.33-.86-.54-.86-.61v-.17c0-.13.23-.27.69-.43,0-.58-.13-.87-.26-.87h-.26a1.11,1.11,0,0,1-.61.35l-.08-.17a4.13,4.13,0,0,0,.08-.78l-.17-.09h-.17c-.09,0-.17.09-.26.27Zm.17-13.15v.09c0,.11.07.17.17.17h.44c.11,0,.17-.08.17-.26a.62.62,0,0,1-.09-.26H95.1c-.34,0-.52.12-.52.26Zm.78,13.07a.16.16,0,0,0,.17.17h.35v-.17a.17.17,0,0,0-.13-.18h-.22c-.11,0-.17.08-.17.18Zm.61-20v.17c0,.1.26.19.78.26a1.61,1.61,0,0,0,.51,1.13v.26a1.38,1.38,0,0,1-.17.69l-.6-.09h-.18a1.89,1.89,0,0,0-.17.69l.52.09h.6c.09,0,.35.35.78,1V10c-.4.28-.6.49-.6.6l.26.43v.18l-.18.26v.26l.44.08a.76.76,0,0,0,.69-.34v-.26a1.14,1.14,0,0,1-.35-.61c.1,0,.25-.17.44-.52l-.18-.43.09-.52c-.06-.3-.09-.48-.09-.52a.8.8,0,0,0,.09-.43c-.12,0-.17-.09-.17-.26L98,8a.78.78,0,0,1-.17-.26c.35-.2.52-.34.52-.43,0-.3-.29-.65-.86-1A.58.58,0,0,1,97.44,6a1.53,1.53,0,0,0,.26-.69V5.12c0-.09-.09-.17-.26-.26h-.26A1.65,1.65,0,0,0,96,5.64Zm.34,26.74c-.11.23-.2.34-.26.34.09.23.18.35.26.35h.35c.09,0,.17-.09.26-.26a.73.73,0,0,0-.61-.43Zm-.08-22.24v.26c0,.11.08.17.26.17.34-.06.52-.14.52-.26v-.08c0-.09-.09-.18-.26-.26a1.38,1.38,0,0,1-.52.17Zm.17-8a5.12,5.12,0,0,1,.95,1.39h.09c.13,0,.33-.23.6-.7h.09l.26.18c.09,0,.2-.12.34-.35V2.35h-.08l-.17.09q0-.69-1-.69a.16.16,0,0,0-.13-.18h-.13c-.57,0-.86.18-.86.53Zm0,8.65v.35c0,.12.07.17.17.17h.26c.09,0,.2-.11.35-.34v-.18ZM97.18,14h-.44c-.11,0-.17.08-.17.18v.34c0,.12.07.18.17.18h.09a2.36,2.36,0,0,1,.43-.35h.09c.09,0,.17.09.26.26v.17l-.26.35v.17h.09a.46.46,0,0,0,.52-.39v-.13c.28,0,.43-.2.43-.6V14a.79.79,0,0,1-.26-.08,7.63,7.63,0,0,1-.95.09Zm-.35,2.86L97,17h.35a.14.14,0,0,0,.17-.13s0,0,0,0v-.09l-.43-.08c-.08,0-.17.09-.26.26Zm.09.43v.17a2.73,2.73,0,0,1,.52.78h.17v-.34a1.11,1.11,0,0,1-.35-.61Zm.17-4.93a1,1,0,0,0,.69.61c.46-.05.7-.28.7-.7,0-.17-.32-.26-1-.26h-.17c-.14,0-.23.12-.26.35Zm0,7.35.17.09h.18v-.09a.16.16,0,0,0-.13-.17h0c-.11,0-.17.08-.17.18Zm.09-15.22a1,1,0,0,0,.52.17h.17A.16.16,0,0,0,98,4.56V4.34c0-.08-.11-.2-.34-.34h-.26c-.17.06-.26.23-.26.52Zm.08,5v.09c0,.12.08.17.18.17l.08-.17V9.53Zm1,17v.44c.23,0,.35.11.35.26v.17a4.48,4.48,0,0,1-1,.6,1.18,1.18,0,0,0,.77,1,.79.79,0,0,0-.08.26l.17.09.43-.26.35.26h.26a13,13,0,0,0,.17-1.65l-.17-.08-.61.17-.08-.17v-.09h.43c.17,0,.26-.27.26-.69-.09-.23-.17-.35-.26-.35Zm-.43,3.38v.52H98a.55.55,0,0,0,.61-.46v-.15a1.1,1.1,0,0,0-.52-.17c-.09,0-.17.09-.26.26Zm.34,1.47a.79.79,0,0,0,.26.08,3.52,3.52,0,0,1,1.21-.77l.09-.35c-.07-.4-.19-.61-.34-.61h-.09c-.17.06-.38.38-.61,1q-.41,0-.51.69ZM99.34,2.18c0,.09.09.17.26.26h.26l.09-.35L99.77,2h-.26a.16.16,0,0,0-.17.17Zm.34.95.09.18a1.22,1.22,0,0,0-.43.77v.09l.43.09.52-.18V3.82a.72.72,0,0,0-.52-.69Zm.09,2.68V5.9h.43c.09,0,.18-.09.26-.26l-.17-.09H100c-.08,0-.17.09-.25.27Zm.61,6.84h.08c.12,0,.18.07.18.17a.17.17,0,0,1-.13.18h-.13a.17.17,0,0,1-.18-.13v0c0-.11.08-.17.18-.17ZM102,2.09v.09c0,.12.07.17.17.17h.18c.17-.05.26-.23.26-.52,0-.08-.09-.17-.26-.26a.48.48,0,0,0-.35.53Zm.09,1V3.3l.69.61v.17a.17.17,0,0,1-.13.18h0c0-.09-.09-.18-.26-.26h-.26v.34c0,.18.23.26.52.26h.17c.69,0,1-.29,1-.86-.22-1.1-.39-1.65-.52-1.65a3.15,3.15,0,0,0-1.21,1Zm1,3v.09a.85.85,0,0,0,.26.69.56.56,0,0,0,.43-.6V6.16c0-.09-.11-.2-.34-.35h-.09c-.08,0-.17.09-.26.27Zm1.73,14H105v.26c-.2.35-.34.52-.43.52h-.17a.16.16,0,0,1-.17-.13v0c.4-.1.6-.3.6-.61ZM107,.19c1,0,2,.75,2.77,2.25q2.94,2.94,2.94,3.64v.43c-.17,2.45-.26,3.78-.26,4a4.86,4.86,0,0,1,.26,1.56c-.12,0-.17.07-.17.17l.17.26a.94.94,0,0,1-.43.69v.17a1.11,1.11,0,0,1,.26.52c-1.27,1.27-1.9,2.05-1.9,2.34v.17a9.46,9.46,0,0,0,1.81,1.82,4.22,4.22,0,0,1,.26,1.21c-.11,1.53-.17,2.45-.17,2.77v3.55c0,.08.09.17.26.25h1.21c.17.06.26.24.26.52v.18c.17,2.65.26,4.29.26,4.93a2.26,2.26,0,0,1-.61,1.73h-3.11a.16.16,0,0,1-.17-.13,0,0,0,0,1,0,0V31.6a.16.16,0,0,0-.13-.17h0c-.08,0-.17.11-.26.34a4.08,4.08,0,0,1,.09.69c-.09,0-.17.12-.26.35a.73.73,0,0,1,.09.35.16.16,0,0,1-.13.17h-3.94c-.11,0-.23-.29-.34-.87l.08-.17c-.11-.4-.32-.6-.6-.6l-.44.26h-.34l-.09-.44.17-.08a5.35,5.35,0,0,0,.7.08c.23-.08.34-.17.34-.26v-.43c-.75-.06-1.12-.15-1.12-.26v-.09c0-.1.26-.24.78-.43a.67.67,0,0,0,.69.43,9.33,9.33,0,0,0,.34-3.11c0-1.21-.14-1.82-.43-1.82h-.17c-.11,0-.17.07-.17.17a.58.58,0,0,0,.09.26l-.09.44a4.89,4.89,0,0,1,.09.52l-.09.43.17.34c-.06.64-.08,1.19-.08,1.65v.09l-.44-.09H105l-.35.34-.08-.17a1.42,1.42,0,0,0,.43-.86,4.32,4.32,0,0,1-.43-1.3c.4-.15.6-.26.6-.35v-.17a1.06,1.06,0,0,1-.17-.26v-.09a5.78,5.78,0,0,1,.17-.69v-.35l-.26-.34.52-.44v-.25a1.27,1.27,0,0,1-.43-.78v-.09a1.63,1.63,0,0,0,.35-.87q1.47,0,1.47-.69l-.18-.08a5.78,5.78,0,0,0-.69.17,2.37,2.37,0,0,1-.34-1.56l.6-4c0-.07,0-.36-.08-.86a5.24,5.24,0,0,0,.43-2.34,1.8,1.8,0,0,0-.35-1.12V11.7a1.19,1.19,0,0,0,.26-.78v-.09l-.08-.52a5.93,5.93,0,0,0,.34-1.38.68.68,0,0,1-.17-.35,3.59,3.59,0,0,0,.08-.35.72.72,0,0,1-.08-.26c.17,0,.26-.11.26-.34l-.26-.87.6-.69c0-.63-.2-1-.6-1-.18,0-.26-.06-.26-.17s.17-.09.26-.26a.17.17,0,0,1-.18-.13.09.09,0,0,1,0,0V4.43a1.48,1.48,0,0,0,.52-.87l-.18-.34a13.57,13.57,0,0,0,.18-1.9,3,3,0,0,1-.18-.78c0-.23.17-.35.34-.35Zm-2.16,21.29H105c.13,0,.22.34.26,1l-.17.08h-.26c-.09,0-.17-.11-.26-.34l.09-.18a.67.67,0,0,1-.09-.34ZM104.79,33h.35c.11,0,.17.08.17.18v.08a.17.17,0,0,1-.13.18h0c-.35-.06-.52-.15-.52-.26a.15.15,0,0,1,.17-.17Zm2.16-1.3-.08.18V32H107a.16.16,0,0,0,.17-.13v-.13a.67.67,0,0,1-.25-.08Zm.52-1.3v.18c.06.17.23.26.52.26l.09-.18v-.17a.16.16,0,0,0-.13-.17h0Zm1.3-17.91-.26.78a3,3,0,0,0,.35.87q-.09.6-.09.69a3.87,3.87,0,0,1,.35,1c-.12,0-.18.07-.18.17v.87c0,.11.07.17.18.17.3,0,.47-.09.52-.26v-.09a3.66,3.66,0,0,0-.18-.78c.09,0,.2-.11.35-.34v-.17a5.51,5.51,0,0,1-.52-2.34c-.06,0-.23-.2-.52-.6Zm-.17-1.12.26.17.08-.17v-.17h-.17c-.11,0-.17.08-.17.18Zm.43,6.06.09.43c-.23.08-.35.17-.35.26q0,.69.87.69c.08,0,.17-.09.26-.26v-.17a1.64,1.64,0,0,1-.35-.52,1,1,0,0,0,.17-.43,1,1,0,0,0-.52-.18c-.11,0-.17.08-.17.18Zm.52,2.07v.26a5.18,5.18,0,0,0,.09.78L109.2,22v.17a6.12,6.12,0,0,1,1,.18.62.62,0,0,0,.09-.26,4.29,4.29,0,0,1-.26-1,2.4,2.4,0,0,0,.43-.61,3.09,3.09,0,0,0-.69-1.12h-.09c-.11,0-.17.08-.17.18Zm.09,6.58.17.08h.26c.17,0,.26-.11.26-.34a.62.62,0,0,1-.09-.26h-.34c-.18.06-.26.24-.26.52Zm.26,1a2.41,2.41,0,0,0,.08.6,5.12,5.12,0,0,0-.08.87v.09c0,.41.08.64.26.69h.17c.09,0,.17-.09.26-.26l-.09-.78.09-.43c-.16-.7-.3-1-.43-1h-.09c-.11,0-.17.09-.17.26Zm.17,3.63v.26c0,.09.09.17.26.26h.26l.09-.34a.87.87,0,0,0-.26-.18Zm1.12,1.13c0,.75.13,1.12.26,1.12h.35a8.66,8.66,0,0,1,.26-1.12c-.06-.18-.23-.26-.52-.26h-.09s-.12.09-.25.26Zm2.43-.61.17.09H114a.17.17,0,0,0,.18-.13v-.3h-.09c-.29.14-.43.26-.43.35Z"/></g></g></g></g></svg>