<svg xmlns="http://www.w3.org/2000/svg" viewBox="0 0 184.53 104.11"><defs><style>.cls-1{fill:#fff;}.cls-2{fill:#dc343d;}</style></defs><g id="Calque_2" data-name="Calque 2"><g id="Calque_1-2" data-name="Calque 1"><path class="cls-1" d="M46.46,69.37l-6.78-8,5.54.28,8.56,9.26-8.56,9.27-5.37.28-.06-.12,6.66-7.84-.08-.08-9.7,8.19-8.15.41-.08-.13,6.6-8-.1-.11L24.83,81.24l-7.87.4,6.77-8.54-.1-.12C19.74,75.92,15.88,78.9,12,81.89l-7.67.39-.06-.12L14.34,73l-.05-.11-8.53.26-1-.83,0-.14.64-.06L11,72l13.77-.31,15.46-.37L50.81,71c.19,0,.38,0,.56,0l0-.12-.55,0-5.47-.13L31.6,70.41,15.82,70,5.51,69.78a2,2,0,0,1-.81-.15l1-1,8.52.36.08-.11L4.25,59.75l0-.14L12,60l11.67,8.92.11-.12L17,60.25l7.86.4L35,69.12l.1-.09-6.59-8,.06-.16,8.15.4,9.71,8.21Z"/><path class="cls-1" d="M136.8,72.52l6.78,8L138,80.22,129.48,71,138,61.68l5.37-.27.06.11-6.66,7.84.08.08,9.7-8.19,8.15-.41.08.14-6.6,8,.1.1,10.11-8.47,7.87-.4-6.77,8.55.1.12c3.89-3,7.75-5.93,11.67-8.91l7.67-.4.06.12L168.92,68.9,169,69l8.53-.26,1,.83,0,.14c-.22,0-.43,0-.64,0l-5.6.14-13.77.3L143,70.6l-10.56.25-.56,0,0,.12a5.28,5.28,0,0,0,.55,0l5.47.13,13.77.31,15.78.38,10.31.25a2,2,0,0,1,.81.16l-1.05,1L169,72.88l-.08.1L179,82.15l0,.13-7.67-.39L159.63,73l-.11.11,6.78,8.55-7.86-.4-10.13-8.47-.1.1,6.59,8-.06.16-8.15-.4-9.71-8.21Z"/><path class="cls-1" d="M11,35.93h13.5V45.3H5.58l-3.92-4q-.27-9.59-.54-19.24C1,18.35,1,14.62.75,10.9.64,9,.23,7.06,0,5.42L5.44,0H24.65V9.23H10.15Z"/><path class="cls-1" d="M138.12,9.88v8.5H148.4v9.43h-10V45.42h-9.5c0-1.6,0-3.33,0-5.05-.1-10,0-20-.47-29.94a59.87,59.87,0,0,1-.18-7.58c.06-.72.18-1.44.3-2.37H152.6c-.33,2.91-.68,5.94-1.07,9.4Z"/><path class="cls-1" d="M36.67,46l-7.93-.73V10.51H44.47l.13.08c3.48,1.92,5.22,4.65,4.66,8.82a29.87,29.87,0,0,0,.17,6.4,3.92,3.92,0,0,1-1.35,3.45c-.86.79-1.59,1.72-2.46,2.68,2,3.74,4,7.38,6,11.07a20.77,20.77,0,0,1,1,3.16l-7.64.4L37.11,32.29l-.44.07Zm.1-21.6h4.77V17.08l-4.77.23Z"/><path class="cls-1" d="M57.46,10.35H70.39L74,15.55v26.8l-3.25,4H58.34l-4.2-4.54c0-4.47,0-9.48,0-14.49,0-3.16.14-6.31.06-9.47a6.07,6.07,0,0,1,1.3-4.38A25.21,25.21,0,0,0,57.46,10.35ZM66.31,18H61.86V38.63h4.45Z"/><path class="cls-1" d="M73.4,74.6H60.73V52.84H81.34V60.4H68.55v6.77h7c2.07,1.83,3.63,3.11,5.06,4.53a3.06,3.06,0,0,1,.75,1.92c.07,3.18.07,6.38,0,9.56a3.66,3.66,0,0,1-.78,1.94c-1,1.33-2.17,2.56-3.35,3.93H60.91V80.22H69l.48,1.22H73.4Z"/><path class="cls-1" d="M119.53,46.17h-16.6V37h7.39l.17,1.73h5.3V32.1h-9.06c-1.47-1.75-2.84-3.38-4.31-5.11q.3-5.7.61-11.45c1.85-1.68,3.63-3.33,5.45-4.93a2.06,2.06,0,0,1,1.22-.46c4.56,0,9.13,0,13.87,0v9.18h-7.22L116,17.72h-5.44c-.14,2.21-.27,4.37-.42,6.73h9l4.32,5.09c0,3.64.07,7.31-.06,11a4.92,4.92,0,0,1-1.17,2.32C121.38,44,120.45,45,119.53,46.17Z"/><path class="cls-1" d="M78.32,46.52V37.35h7.33l.25,1.72h5.28V32.46H82.3c-2.62-2.55-5.13-4.87-4.36-9a57.61,57.61,0,0,0,.45-7.51c1.77-1.62,3.54-3.27,5.34-4.88a1.76,1.76,0,0,1,1-.46c4.67,0,9.34,0,14.16,0v9.11h-7.2l-.38-1.59H85.89c-.12,2.22-.24,4.38-.38,6.73h8.24c6.82,3.92,5,9.93,5.13,15.34.06,2.91-2.64,4.27-3.9,6.35Z"/><path class="cls-1" d="M94,88.63H85.7C89.4,79.32,93,70.16,96.78,60.72h-11V53.26h19.53c.11,3.34.29,6.46-1.1,9.69C100.62,71.4,97.38,80,94,88.63Z"/><path class="cls-1" d="M177.72,46.25l-7.44.39.95-27.43h-6.17V11.82h18.75c.23,2.23.46,4.45.72,7H178.7C178.37,28.13,178.05,37.07,177.72,46.25Z"/><path class="cls-1" d="M122,53.29V88.61h-7.41V60.54h-4.67V53.29Z"/><path class="cls-1" d="M154,12.19h7V46.31l-7-.39Z"/><path class="cls-2" d="M34.59,103.56c-.31-3-.12-5.91-.2-8.8a5.47,5.47,0,0,1,2.87-.14l.85,4.32.23,0,1.26-4.39h2.18a64.61,64.61,0,0,1,.06,9.06h-1.7V100.9c-.48.43-.48.43-.7,1.19L39,103.55H37.11l-.58-2.34h-.21v2.34Z"/><path class="cls-2" d="M50.66,100.52v2.83H49a54.62,54.62,0,0,1-.05-8.9,1.2,1.2,0,0,1,.32-.06l1.26.19a25.59,25.59,0,0,0,1.63,3.5V94.69a3.25,3.25,0,0,1,1.67-.16,60.46,60.46,0,0,1,.11,9.26c-.25,0-.52,0-.79,0s-.55,0-.9,0l-1.36-3.3Z"/><path class="cls-2" d="M125.78,99l-1,1.21,1.85,3.62h-2l-1.92-3.45-.23.06v3.33l-1.87-.18c0-.75,0-1.45,0-2.16a35.38,35.38,0,0,0-.19-5.73,6,6,0,0,1,0-1,32.62,32.62,0,0,1,4-.11l1.2.94Zm-1.87-.67-.12-1.93-1.23.09v1.84Z"/><path class="cls-2" d="M76.2,103.66V94.44h3.88l1.26,1.76v5.86l-1,1.6ZM79.46,102V96.34H78.12v5.5Z"/><path class="cls-2" d="M132.05,102.86l-.74,1h-3.18l-1-1V96l.8-1.21h3.33l.79,1.11Zm-3-6.25c-.25,1.76-.21,5,.13,5.39l1-.08c0-1.83,0-3.57,0-5.43Z"/><path class="cls-2" d="M135.27,102h1s.09-.07.09-.1c.06-2.3.11-4.61.16-7l1.58-.28a52.91,52.91,0,0,1,.15,8.52,5.75,5.75,0,0,1-.49.43c-.16.12-.34.21-.52.32h-2.91l-1-.72V94.84l1.72-.1C135.29,97.17,135.11,99.51,135.27,102Z"/><path class="cls-2" d="M111.51,94.6h1.67a24.07,24.07,0,0,1,.1,3.59c0,1.16,0,2.31,0,3.52l1.24.29c.15-2.49,0-4.88.1-7.39l1.61-.09a50.69,50.69,0,0,1,.14,8.36,4.44,4.44,0,0,1-.5.43,5.31,5.31,0,0,1-.57.34h-3l-.84-.71Z"/><path class="cls-2" d="M66.6,103.57H64.72L64.21,102H62.26l-.67,1.87-1.8-.23,2.53-9.17H64a31,31,0,0,1,1.3,4.45C65.74,100.42,66.15,102,66.6,103.57ZM63.71,100l-.38-1.28-.21,0L62.81,100Z"/><path class="cls-2" d="M110.53,103.57h-1.84l-.58-1.57h-2l-.62,1.85-1.78-.23c.75-3.11,1.67-6.1,2.48-9.17H108Zm-3.89-3.6.92-.07-.29-1.16-.2,0Z"/><path class="cls-2" d="M144.53,95.86v1.4c-.53.29-1.09.1-1.68.13l-.31-.84h-1.11c-.1,1.8,0,3.55-.07,5.39h1.41l-.53-1V99.44l2.28.16v4.2a29.71,29.71,0,0,1-3.77.09l-1.17-1V95.7l1-.91,2.84-.24Z"/><path class="cls-2" d="M87.34,102.06v1.12l-1.11.66h-3.5l-.2-9.22a19.82,19.82,0,0,1,4.83-.26l-.23,1.81H84.75c-.43.64-.15,1.24-.29,2h2.15V100l-2,.16V102Z"/><path class="cls-2" d="M150.52,96.42h-2.46c-.52.63-.11,1.21-.15,1.91H150v1.85l-1.93.11a3.49,3.49,0,0,0-.09,1.89h2.74v1.22a5.77,5.77,0,0,1-1.55.65,26.89,26.89,0,0,1-3,0,1.84,1.84,0,0,1-.11-.39q-.12-3.9-.23-7.79c0-.39,0-.78,0-1.27h4.68Z"/><path class="cls-2" d="M42.84,94.59a19.56,19.56,0,0,1,4.63-.21v1.81H44.8l-.11,1.93,2.26.1V100l-2,.12V102h2.7l.08,1.09a2.86,2.86,0,0,1-2.23.83c-.76,0-1.52,0-2.29,0a1.11,1.11,0,0,1-.16-.33q-.13-4.19-.25-8.39C42.79,95,42.82,94.84,42.84,94.59Z"/><path class="cls-2" d="M102.93,103.21c-1.38,1.12-2.88.46-4.36.73-.44-3.14-.21-6.2-.36-9.29a17,17,0,0,1,4.78-.27l-.08,1.79h-2.68v2l2,.09V100l-2,.13V102h2.67Z"/><path class="cls-2" d="M97.2,98.85l-.85,1.32-2.15.1v3.2a4,4,0,0,1-1.86.17v-9h3.9l1,1.13Zm-1.89-2.43-1.09.07v1.82l1.09,0Z"/><path class="cls-2" d="M56.78,96.48l-1.62-.11.13-1.74H60l.34,1.68-1.5.17a6.33,6.33,0,0,0-.21,2.33c-.06.76,0,1.52-.08,2.28s-.14,1.58-.22,2.46H56.53Z"/><path class="cls-2" d="M67.28,103.76a7,7,0,0,1-.17-1.26c.08-2.66.19-5.32.29-8.07l1.76.2v7.23H72l-.18,1.75Z"/></g></g></svg>