<svg xmlns="http://www.w3.org/2000/svg" viewBox="0 0 19 19"><defs><style>.cls-1{fill:none;stroke:#d9000d;stroke-width:2px;}.cls-2{fill:#d9000d;}</style></defs><g id="Calque_2" data-name="Calque 2"><g id="Composant_218_4" data-name="Composant 218 4"><g id="Composant_216_17" data-name="Composant 216 17"><g id="Rectangle_61668" data-name="Rectangle 61668"><path class="cls-1" d="M9.5,1h0A8.51,8.51,0,0,1,18,9.5h0A8.51,8.51,0,0,1,9.5,18h0A8.51,8.51,0,0,1,1,9.5H1A8.51,8.51,0,0,1,9.5,1Z"/></g></g><path id="Rectangle_61668-2" data-name="Rectangle 61668-2" class="cls-2" d="M9.5,4h0A5.5,5.5,0,0,1,15,9.5h0A5.5,5.5,0,0,1,9.5,15h0A5.5,5.5,0,0,1,4,9.5H4A5.5,5.5,0,0,1,9.5,4Z"/></g></g></svg>