<svg xmlns="http://www.w3.org/2000/svg" viewBox="0 0 65.97 30.18"><g id="Calque_2" data-name="Calque 2"><g id="Calque_1-2" data-name="Calque 1"><path id="Tracé_31825" data-name="Tracé 31825" d="M56.22,13l-9-10.61,7.38.37L66,15.09,54.57,27.43l-7.16.36-.08-.16L56.2,17.2l-.1-.11L43.18,28l-10.84.54-.11-.18L41,17.66l-.13-.14L27.41,28.79l-10.47.54L26,18l-.14-.16c-5.17,3.92-10.31,7.89-15.53,11.86L.08,30.18,0,30,13.46,17.81l-.07-.15L2,18,.69,16.9l0-.18c.28,0,.57-.07.85-.08,2.48-.07,5-.13,7.45-.18l18.33-.41q10.29-.24,20.59-.5L62,15.21c.25,0,.5,0,.74,0l0-.16L62,15l-7.28-.17-18.33-.41-21-.51L1.7,13.54a2.85,2.85,0,0,1-1.08-.21L2,12.05l11.35.47.11-.14L0,.18.07,0,10.28.52,25.81,12.39l.16-.16L16.94.85l10.47.53L40.89,12.66l.13-.13L32.25,1.84l.07-.21,10.86.54L56.11,13.09Z"/></g></g></svg>